# xmcd
#
# Track frame offsets:
#	150
#	15432
#	30211
#	48597
#	64216
#	79578
#	92312
#	110977
#	128284
#	145195
#	163567
#	174669
#	188682
#	205176
#	223839
#	238304
#
# Disc length: 3415 seconds
#
# Revision: 2
# Processed by: cddbd v1.5.2PL0 Copyright (c) Steve Scherf et al.
# Submitted via: audiograbber 1.83.01
#
DISCID=d20d5510
DTITLE=Diverse - Schlager Doppel
DYEAR=1980
DGENRE=Schlager
TTITLE0=Wolfgang Petry - Wahnsinn
TTITLE1=Wolfgang Petry - Und w-w-wer küsst mich (She's gonna win)
TTITLE2=Andreas Martin - Bleib heute Nacht
TTITLE3=Andreas Martin - Cathy's Clown
TTITLE4=Dennie Christian - Rosamunde
TTITLE5=Dennie Christian - Der schöne Karl ist König
TTITLE6=Kim Merz - Der Typ neben ihr
TTITLE7=Kim Merz - Vor Deiner Tür
TTITLE8=Ute Berling - Alles was ich will bist Du (Saving all my love for you)
TTITLE9=Ute Berling - Ich will mit Dir geh'n
TTITLE10=Phil and John - Hello, Mary Lou
TTITLE11=Phil and John - Denn seit mehr als 1000 Jahren
TTITLE12=Xanadu - Ein Tag, eine Nacht, eine Stunde
TTITLE13=Xanadu - Insel hinter'm Horizont
TTITLE14=Et Cetera - Et Cetera
TTITLE15=Et Cetera - Was glaubst Du eigentlich, wer Du bist
EXTD=
EXTT0=
EXTT1=
EXTT2=
EXTT3=
EXTT4=
EXTT5=
EXTT6=
EXTT7=
EXTT8=
EXTT9=
EXTT10=
EXTT11=
EXTT12=
EXTT13=
EXTT14=
EXTT15=
PLAYORDER=
